# xmcd CD database file
#
# Track frame offsets:
#	150
#	17737
#	49995
#	70835
#	93242
#	114812
#	144177
#	165642
#	184182
#	200610
#	214457
#
# Disc length: 3216 seconds
#
# Revision: 1
# Processed by: cddbd v1.5.1PL0 Copyright (c) Steve Scherf et al.
# Submitted via: CDex 1.51
#
DISCID=980c8e0b
DTITLE=Paul Palmeri - Bishop of the Blues
DYEAR=2000
DGENRE=Blues
TTITLE0=Get on with it
TTITLE1=No Justice
TTITLE2=Cross cut saw
TTITLE3=Like a bullet
TTITLE4=The Glide
TTITLE5=Kansas City
TTITLE6=Philene
TTITLE7=Stop your jiving
TTITLE8=From the heart
TTITLE9=I need your money
TTITLE10=The Boogie
EXTD=YEAR: 2000
EXTT0=
EXTT1=
EXTT2=
EXTT3=
EXTT4=
EXTT5=
EXTT6=
EXTT7=
EXTT8=
EXTT9=
EXTT10=
PLAYORDER=
